<svg xmlns="http://www.w3.org/2000/svg" xmlns:xlink="http://www.w3.org/1999/xlink" width="2000" zoomAndPan="magnify" viewBox="0 0 1500 1499.999933" height="2000" preserveAspectRatio="xMidYMid meet" version="1.0"><defs><clipPath id="9ff4316551"><path d="M 0.734375 502 L 322 502 L 322 848 L 0.734375 848 Z M 0.734375 502 " clip-rule="nonzero"/></clipPath><clipPath id="02490489d6"><path d="M 554 1104 L 640 1104 L 640 1199.359375 L 554 1199.359375 Z M 554 1104 " clip-rule="nonzero"/></clipPath><clipPath id="348a3ba210"><path d="M 532 139 L 849 139 L 849 461 L 532 461 Z M 532 139 " clip-rule="nonzero"/></clipPath><clipPath id="5c6188fbd1"><path d="M 678.097656 1.003906 L 941.296875 264.203125 L 704.417969 501.082031 L 441.214844 237.882812 Z M 678.097656 1.003906 " clip-rule="nonzero"/></clipPath><clipPath id="059b2134ad"><path d="M 678.097656 1.003906 L 941.296875 264.203125 L 704.417969 501.082031 L 441.214844 237.882812 Z M 678.097656 1.003906 " clip-rule="nonzero"/></clipPath><clipPath id="925348ff27"><path d="M 530 116 L 671 116 L 671 167 L 530 167 Z M 530 116 " clip-rule="nonzero"/></clipPath><clipPath id="a0082424c7"><path d="M 678.097656 1.003906 L 941.296875 264.203125 L 704.417969 501.082031 L 441.214844 237.882812 Z M 678.097656 1.003906 " clip-rule="nonzero"/></clipPath><clipPath id="32853e9685"><path d="M 678.097656 1.003906 L 941.296875 264.203125 L 704.417969 501.082031 L 441.214844 237.882812 Z M 678.097656 1.003906 " clip-rule="nonzero"/></clipPath><clipPath id="0829ce5ee3"><path d="M 733 348 L 767 348 L 767 465 L 733 465 Z M 733 348 " clip-rule="nonzero"/></clipPath><clipPath id="2a7693521c"><path d="M 678.097656 1.003906 L 941.296875 264.203125 L 704.417969 501.082031 L 441.214844 237.882812 Z M 678.097656 1.003906 " clip-rule="nonzero"/></clipPath><clipPath id="abe631eea3"><path d="M 678.097656 1.003906 L 941.296875 264.203125 L 704.417969 501.082031 L 441.214844 237.882812 Z M 678.097656 1.003906 " clip-rule="nonzero"/></clipPath><clipPath id="def356de2e"><path d="M 783 218 L 803 218 L 803 284 L 783 284 Z M 783 218 " clip-rule="nonzero"/></clipPath><clipPath id="bbd7be383d"><path d="M 678.097656 1.003906 L 941.296875 264.203125 L 704.417969 501.082031 L 441.214844 237.882812 Z M 678.097656 1.003906 " clip-rule="nonzero"/></clipPath><clipPath id="836041bf69"><path d="M 678.097656 1.003906 L 941.296875 264.203125 L 704.417969 501.082031 L 441.214844 237.882812 Z M 678.097656 1.003906 " clip-rule="nonzero"/></clipPath><clipPath id="84f0c9e0f7"><rect x="0" width="942" y="0" height="1202"/></clipPath></defs><g transform="matrix(1, 0, 0, 1, 279, 149)"><g clip-path="url(#84f0c9e0f7)"><g clip-path="url(#9ff4316551)"><path fill="#fbd400" d="M 28.375 625.230469 C 72.636719 576.15625 134.167969 540.726562 194.558594 508.023438 L 197.585938 506.4375 L 204.234375 502.816406 C 246.464844 511.5 285.765625 523.359375 321.742188 538.292969 C 316.53125 602.058594 311.269531 665.722656 306.011719 729.488281 L 305.8125 731.820312 C 246.664062 767.5 186.667969 804.617188 132.332031 847.242188 C 86.433594 829.921875 42.121094 809.925781 0.734375 787.894531 L 0.734375 787.792969 C 3.019531 733.753906 10.414062 684.578125 22.917969 641.011719 " fill-opacity="1" fill-rule="evenodd"/></g><path fill="#ffffff" d="M 574.316406 442.625 L 560.96875 475.273438 C 555.90625 475.027344 550.648438 474.925781 545.136719 474.925781 C 490.109375 474.925781 414.085938 486.191406 341.835938 505.046875 L 332.609375 507.527344 L 332.558594 507.527344 C 298.617188 492.445312 255.59375 480.136719 220.164062 473.539062 C 226.367188 462.769531 234.902344 452.945312 246.265625 443.121094 C 298.667969 423.867188 353.695312 414.089844 409.917969 413.992188 L 410.8125 413.992188 C 466.488281 413.992188 521.222656 423.519531 573.421875 442.324219 L 574.316406 442.625 " fill-opacity="1" fill-rule="evenodd"/><path fill="#ffffff" d="M 842.375 685.324219 C 842.375 704.429688 840.191406 721.101562 835.824219 735.144531 C 834.433594 734.152344 833.046875 733.210938 831.65625 732.265625 C 830.910156 731.769531 830.167969 731.222656 829.421875 730.777344 C 827.539062 729.488281 825.601562 728.199219 823.714844 726.957031 C 793.546875 707.058594 761.042969 689.492188 726.902344 674.65625 L 720.851562 664.183594 C 683.433594 599.675781 639.519531 540.128906 590.144531 487.28125 L 605.976562 455.476562 C 611.136719 457.757812 616.296875 460.140625 621.359375 462.621094 L 622.847656 463.363281 C 669.242188 486.242188 711.519531 516.558594 748.488281 553.480469 C 787.394531 592.132812 818.902344 636.445312 842.375 685.324219 " fill-opacity="1" fill-rule="evenodd"/><path fill="#fbd400" d="M 851.554688 964.644531 L 851.554688 965.488281 C 851.453125 969.808594 851.304688 974.125 851.109375 978.492188 L 850.910156 984.296875 C 822.773438 1030.046875 790.964844 1072.722656 755.980469 1111.675781 C 703.234375 1094.011719 652.222656 1073.46875 604.4375 1050.492188 C 600.417969 996.15625 589.402344 924.898438 579.078125 873.042969 C 577.542969 863.765625 575.953125 855.082031 574.367188 846.792969 L 574.714844 846.445312 C 623.691406 800.496094 670.433594 750.972656 713.804688 699.167969 C 754.394531 719.066406 792.105469 742.242188 826.445312 768.441406 L 830.5625 781.242188 L 830.8125 782.085938 C 846.394531 833.644531 853.390625 895.175781 851.554688 964.644531 " fill-opacity="1" fill-rule="evenodd"/><path fill="#fbd400" d="M 556.503906 1062.402344 L 556.503906 1062.449219 C 556.304688 1062.601562 556.105469 1062.75 555.90625 1062.898438 L 554.667969 1063.988281 C 507.921875 1104.035156 455.621094 1139.066406 397.164062 1176.929688 L 389.175781 1182.089844 L 196.691406 1103.339844 C 196.59375 1102.894531 196.496094 1102.398438 196.394531 1101.902344 L 192.027344 1081.355469 L 191.730469 1081.355469 C 178.132812 1017.59375 168.953125 948.519531 164.488281 875.625 L 164.4375 874.433594 L 322.089844 755.636719 L 334.296875 746.410156 C 404.164062 769.679688 469.960938 797.269531 530.101562 828.433594 C 530.898438 833.59375 531.640625 838.707031 532.335938 843.816406 C 542.460938 914.328125 550.546875 987.671875 556.503906 1062.402344 " fill-opacity="1" fill-rule="evenodd"/><path fill="#fbd400" d="M 117.746094 944.898438 C 117.695312 944.945312 117.695312 944.945312 117.644531 944.996094 L 117.347656 945.242188 C 107.175781 953.976562 95.761719 961.621094 83.007812 969.855469 L 81.273438 970.996094 L 39.292969 953.828125 C 39.292969 953.730469 39.242188 953.628906 39.242188 953.53125 L 38.300781 949.015625 L 38.199219 949.015625 C 35.273438 935.121094 33.238281 920.085938 32.246094 904.15625 L 32.246094 903.910156 L 66.632812 878.007812 L 69.3125 875.972656 C 84.546875 881.082031 98.886719 887.085938 111.988281 893.886719 C 112.1875 894.976562 112.335938 896.117188 112.484375 897.210938 C 114.667969 912.59375 116.453125 928.570312 117.746094 944.898438 " fill-opacity="1" fill-rule="evenodd"/><g clip-path="url(#02490489d6)"><path fill="#fbd400" d="M 639.570312 1173.257812 C 639.519531 1173.304688 639.46875 1173.355469 639.421875 1173.355469 L 639.171875 1173.605469 C 629 1182.335938 617.535156 1189.980469 604.832031 1198.214844 L 603.097656 1199.359375 L 561.117188 1182.1875 C 561.066406 1182.089844 561.066406 1181.992188 561.019531 1181.890625 L 560.074219 1177.375 L 560.023438 1177.375 C 557.046875 1163.480469 555.0625 1148.445312 554.070312 1132.515625 L 554.070312 1132.269531 L 588.457031 1106.367188 L 591.089844 1104.332031 C 606.324219 1109.441406 620.710938 1115.449219 633.8125 1122.246094 C 633.960938 1123.335938 634.109375 1124.476562 634.308594 1125.621094 C 636.492188 1140.953125 638.277344 1156.980469 639.570312 1173.257812 " fill-opacity="1" fill-rule="evenodd"/></g><path fill="#ffffff" d="M 701.199219 674.257812 C 657.035156 727.402344 609.894531 777.570312 559.726562 824.710938 L 555.507812 822.429688 C 552.878906 821.039062 550.300781 819.652344 546.328125 817.566406 C 545.933594 817.320312 545.484375 817.070312 544.988281 816.871094 C 479.785156 782.535156 409.523438 753.257812 334.640625 728.695312 C 340 663.242188 345.359375 597.792969 350.71875 532.339844 L 351.117188 527.230469 C 427.484375 507.28125 513.578125 495.023438 567.417969 498.496094 L 570.890625 498.746094 C 620.316406 551.246094 663.785156 609.75 701.199219 674.257812 " fill-opacity="1" fill-rule="evenodd"/><g clip-path="url(#348a3ba210)"><g clip-path="url(#5c6188fbd1)"><g clip-path="url(#059b2134ad)"><path fill="#fbd400" d="M 739.289062 445.417969 C 740.46875 444.09375 741.605469 442.726562 742.601562 441.304688 L 742.984375 440.777344 L 743.355469 440.238281 L 744.066406 439.15625 L 744.75 438.046875 L 745.078125 437.492188 L 745.390625 436.925781 C 745.601562 436.539062 745.800781 436.171875 746.015625 435.785156 L 746.597656 434.632812 C 746.785156 434.25 746.984375 433.851562 747.152344 433.453125 C 747.324219 433.054688 747.507812 432.671875 747.664062 432.257812 C 747.992188 431.449219 748.304688 430.652344 748.589844 429.824219 C 748.734375 429.425781 748.875 429 749.003906 428.589844 L 749.386719 427.324219 C 749.886719 425.628906 750.296875 423.910156 750.597656 422.128906 C 750.765625 421.25 750.878906 420.335938 750.964844 419.425781 C 751.023438 418.972656 751.050781 418.515625 751.09375 418.046875 C 751.136719 417.578125 751.164062 417.121094 751.179688 416.652344 L 751.222656 415.246094 C 751.222656 415.132812 751.222656 415.019531 751.222656 414.902344 L 751.222656 413.964844 C 751.222656 413.140625 751.207031 412.300781 751.195312 411.460938 C 751.136719 410.636719 751.078125 409.8125 751.023438 408.984375 C 750.980469 408.574219 750.964844 408.160156 750.921875 407.75 L 750.765625 406.539062 C 750.382812 403.28125 749.6875 400.195312 748.890625 397.207031 L 748.25 395.003906 C 748.136719 394.632812 748.023438 394.292969 747.90625 393.921875 L 747.195312 391.789062 C 747.070312 391.433594 746.941406 391.105469 746.828125 390.765625 L 746.058594 388.714844 C 745.789062 388.046875 745.53125 387.394531 745.261719 386.753906 L 744.847656 385.769531 L 744.4375 384.816406 L 743.597656 382.925781 L 742.742188 381.105469 L 742.316406 380.195312 L 741.890625 379.3125 L 741.007812 377.550781 C 740.425781 376.425781 739.828125 375.257812 739.257812 374.175781 C 738.078125 371.972656 736.941406 369.894531 735.816406 367.863281 C 733.597656 363.90625 731.390625 359.9375 729.128906 356 L 725.703125 350.125 C 724.566406 348.160156 723.425781 346.195312 722.230469 344.261719 L 718.703125 338.429688 L 716.925781 335.515625 C 716.328125 334.546875 715.730469 333.578125 715.117188 332.625 L 711.492188 326.867188 L 709.671875 323.992188 L 704.082031 315.414062 C 702.828125 313.507812 701.578125 311.628906 700.3125 309.738281 C 692.316406 297.847656 684.007812 286.183594 675.402344 274.703125 C 676.300781 275.285156 677.195312 275.867188 678.105469 276.4375 L 683.683594 280.023438 L 686.554688 281.871094 C 687.578125 282.527344 688.6875 283.238281 689.871094 283.960938 C 692.214844 285.429688 694.820312 286.976562 697.820312 288.585938 C 699.328125 289.382812 700.921875 290.179688 702.613281 290.960938 C 704.308594 291.742188 706.144531 292.527344 708.09375 293.25 C 711.988281 294.703125 716.46875 295.996094 721.433594 296.75 C 723.910156 297.121094 726.527344 297.347656 729.214844 297.390625 C 729.882812 297.40625 730.554688 297.390625 731.234375 297.390625 C 731.578125 297.390625 731.90625 297.375 732.246094 297.375 L 733.257812 297.335938 L 734.265625 297.261719 C 734.605469 297.234375 734.976562 297.207031 735.332031 297.164062 C 736.042969 297.105469 736.753906 297.019531 737.464844 296.9375 C 743.140625 296.183594 748.632812 294.53125 753.511719 292.214844 C 754.125 291.914062 754.722656 291.628906 755.320312 291.316406 C 755.929688 291.019531 756.484375 290.691406 757.070312 290.363281 C 758.25 289.722656 759.332031 289.039062 760.410156 288.328125 C 762.546875 286.90625 764.566406 285.398438 766.414062 283.777344 C 768.277344 282.171875 769.957031 280.492188 771.550781 278.757812 C 772.332031 277.886719 773.101562 277.007812 773.8125 276.097656 C 774.167969 275.65625 774.535156 275.199219 774.878906 274.746094 C 775.21875 274.289062 775.5625 273.835938 775.886719 273.363281 C 778.5625 269.695312 780.695312 265.824219 782.472656 261.828125 C 782.6875 261.332031 782.902344 260.832031 783.101562 260.320312 C 783.300781 259.808594 783.511719 259.3125 783.710938 258.796875 L 784.265625 257.246094 L 784.539062 256.464844 L 784.777344 255.683594 L 785.261719 254.117188 C 785.417969 253.59375 785.5625 253.050781 785.703125 252.539062 C 785.988281 251.488281 786.230469 250.390625 786.472656 249.324219 C 787.382812 245 787.824219 240.492188 787.753906 235.867188 C 787.667969 231.742188 787.183594 227.703125 786.371094 223.847656 C 785.5625 219.992188 784.480469 216.324219 783.128906 212.894531 L 782.617188 211.613281 L 782.078125 210.363281 L 781.820312 209.738281 L 781.550781 209.125 L 780.980469 207.902344 C 780.210938 206.308594 779.402344 204.730469 778.5625 203.234375 C 776.882812 200.21875 775.035156 197.433594 773.113281 194.828125 C 772.191406 193.5625 771.222656 192.339844 770.253906 191.144531 C 773.34375 192.070312 776.429688 192.992188 779.53125 193.902344 L 785.972656 195.765625 L 792.445312 197.601562 L 795.675781 198.527344 C 796.742188 198.824219 797.867188 199.152344 799.003906 199.464844 C 801.28125 200.089844 803.65625 200.730469 806.117188 201.285156 C 808.578125 201.839844 811.167969 202.296875 813.839844 202.609375 C 815.179688 202.75 816.542969 202.867188 817.9375 202.921875 C 819.316406 202.964844 820.738281 202.9375 822.164062 202.851562 C 825.007812 202.652344 827.910156 202.140625 830.65625 201.160156 L 831.679688 200.789062 L 832.6875 200.375 C 833.359375 200.078125 834.054688 199.75 834.707031 199.410156 C 836.003906 198.710938 837.242188 197.929688 838.363281 197.035156 C 839.472656 196.152344 840.5 195.183594 841.4375 194.1875 C 841.664062 193.933594 841.90625 193.691406 842.121094 193.421875 L 842.761719 192.636719 C 842.972656 192.367188 843.160156 192.097656 843.371094 191.828125 C 843.558594 191.558594 843.757812 191.273438 843.941406 191.003906 C 844.679688 189.890625 845.320312 188.738281 845.875 187.558594 C 846.429688 186.378906 846.871094 185.167969 847.226562 183.960938 C 847.953125 181.527344 848.28125 179.039062 848.222656 176.621094 C 848.179688 175.410156 848.039062 174.214844 847.824219 173.0625 C 847.796875 172.921875 847.765625 172.78125 847.738281 172.636719 L 847.625 172.210938 C 847.554688 171.941406 847.484375 171.640625 847.398438 171.355469 C 847.3125 171.074219 847.242188 170.800781 847.128906 170.546875 L 846.828125 169.734375 C 845.960938 178.824219 839.230469 185.46875 832.761719 187.105469 C 831.964844 187.304688 831.152344 187.429688 830.382812 187.488281 C 830 187.53125 829.617188 187.515625 829.230469 187.53125 L 828.632812 187.53125 L 828.039062 187.503906 C 826.445312 187.359375 824.894531 187.0625 823.34375 186.535156 C 822.5625 186.265625 821.777344 185.964844 820.980469 185.625 C 820.199219 185.296875 819.402344 184.929688 818.589844 184.515625 C 816.984375 183.703125 815.375 182.722656 813.726562 181.699219 C 812.0625 180.660156 810.382812 179.523438 808.648438 178.328125 C 807.765625 177.730469 806.898438 177.117188 805.945312 176.476562 L 803.15625 174.601562 L 797.582031 170.84375 L 791.992188 167.132812 C 784.535156 162.210938 777.039062 157.359375 769.515625 152.566406 C 767.636719 151.371094 765.761719 150.175781 763.867188 148.996094 L 762.460938 148.097656 L 761.75 147.644531 L 760.867188 147.132812 C 759.671875 146.449219 758.433594 145.753906 757.125 145.097656 C 754.507812 143.761719 751.664062 142.480469 748.363281 141.398438 C 746.710938 140.859375 744.933594 140.359375 742.984375 139.949219 C 741.050781 139.550781 738.929688 139.25 736.597656 139.136719 C 734.265625 139.023438 731.707031 139.109375 728.945312 139.5625 C 728.605469 139.621094 728.25 139.691406 727.90625 139.75 C 727.566406 139.804688 727.210938 139.878906 726.855469 139.976562 C 726.484375 140.0625 726.144531 140.148438 725.773438 140.234375 L 725.234375 140.375 C 725.046875 140.417969 724.878906 140.476562 724.679688 140.53125 C 723.226562 140.957031 721.761719 141.484375 720.3125 142.140625 C 717.394531 143.433594 714.59375 145.210938 712.144531 147.261719 C 711.832031 147.515625 711.546875 147.773438 711.25 148.042969 L 710.792969 148.441406 C 710.652344 148.582031 710.480469 148.726562 710.339844 148.867188 C 710.039062 149.167969 709.742188 149.464844 709.441406 149.761719 C 709.144531 150.0625 708.859375 150.375 708.589844 150.703125 C 708.019531 151.328125 707.507812 151.984375 706.980469 152.652344 C 706.726562 152.992188 706.484375 153.320312 706.226562 153.660156 C 705.988281 153.988281 705.746094 154.34375 705.515625 154.683594 C 705.289062 155.027344 705.074219 155.382812 704.847656 155.722656 C 704.636719 156.078125 704.4375 156.421875 704.238281 156.789062 C 703.824219 157.515625 703.46875 158.214844 703.113281 158.9375 C 702.445312 160.375 701.832031 161.839844 701.363281 163.277344 C 700.394531 166.179688 699.839844 168.980469 699.558594 171.683594 C 699.273438 174.386719 699.273438 176.976562 699.472656 179.480469 C 699.671875 181.984375 700.070312 184.371094 700.636719 186.734375 C 701.222656 189.082031 701.976562 191.371094 702.941406 193.648438 C 703.199219 194.214844 703.425781 194.785156 703.710938 195.355469 L 704.109375 196.179688 L 704.480469 196.890625 C 704.71875 197.359375 704.960938 197.828125 705.21875 198.3125 L 705.988281 199.652344 C 708.050781 203.222656 710.253906 206.136719 712.273438 208.640625 L 712.644531 209.097656 L 713.011719 209.550781 L 713.753906 210.433594 C 714.222656 210.988281 714.707031 211.558594 715.148438 212.054688 L 717.636719 214.914062 L 718.175781 215.539062 L 718.703125 216.152344 L 719.203125 216.734375 L 719.65625 217.277344 C 719.96875 217.644531 720.195312 217.957031 720.46875 218.285156 C 720.523438 218.371094 720.59375 218.441406 720.636719 218.511719 L 720.792969 218.726562 C 720.910156 218.867188 721.007812 219.023438 721.121094 219.167969 C 721.734375 220.035156 722.332031 220.890625 722.855469 221.757812 L 718.886719 218.699219 C 715.390625 215.996094 711.875 213.308594 708.363281 210.617188 C 694.292969 199.878906 680.125 189.296875 665.859375 178.839844 C 658.730469 173.617188 651.5625 168.414062 644.390625 163.261719 L 639.015625 159.394531 C 637.222656 158.113281 635.21875 156.675781 632.839844 155.070312 C 630.464844 153.460938 627.734375 151.726562 624.605469 149.960938 C 624.222656 149.75 623.792969 149.523438 623.394531 149.292969 L 622.171875 148.640625 L 620.863281 147.984375 C 620.421875 147.773438 620.011719 147.558594 619.527344 147.332031 L 618.148438 146.691406 C 617.917969 146.578125 617.707031 146.476562 617.449219 146.363281 L 616.722656 146.035156 L 615.273438 145.410156 C 614.777344 145.199219 614.25 145.011719 613.738281 144.8125 L 612.96875 144.527344 L 612.585938 144.371094 L 612.1875 144.230469 C 611.660156 144.046875 611.105469 143.859375 610.578125 143.675781 L 609.769531 143.40625 L 608.929688 143.132812 L 607.234375 142.636719 C 606.964844 142.566406 606.640625 142.464844 606.324219 142.378906 L 605.371094 142.140625 C 604.734375 141.984375 604.09375 141.824219 603.464844 141.683594 C 602.828125 141.554688 602.1875 141.429688 601.546875 141.300781 C 600.90625 141.171875 600.265625 141.070312 599.625 140.972656 C 594.460938 140.191406 589.140625 139.960938 583.507812 140.503906 C 583.167969 140.53125 582.8125 140.574219 582.457031 140.617188 L 581.375 140.757812 C 580.648438 140.859375 579.953125 140.957031 579.226562 141.085938 C 578.5 141.214844 577.761719 141.355469 577.035156 141.511719 L 575.941406 141.753906 C 575.585938 141.824219 575.1875 141.941406 574.816406 142.023438 C 573.324219 142.410156 571.84375 142.808594 570.324219 143.332031 C 569.554688 143.589844 568.8125 143.847656 568.058594 144.144531 C 567.292969 144.457031 566.523438 144.769531 565.769531 145.097656 C 564.261719 145.722656 562.710938 146.535156 561.203125 147.332031 C 560.449219 147.714844 559.683594 148.199219 558.941406 148.652344 C 558.1875 149.125 557.433594 149.59375 556.707031 150.089844 C 555.96875 150.601562 555.230469 151.144531 554.519531 151.683594 C 553.792969 152.238281 553.082031 152.78125 552.371094 153.375 C 550.976562 154.570312 549.609375 155.796875 548.316406 157.144531 C 545.742188 159.804688 543.453125 162.722656 541.546875 165.738281 C 539.625 168.769531 538.058594 171.871094 536.824219 174.957031 C 535.585938 178.042969 534.6875 181.101562 534.046875 184.101562 C 533.394531 187.089844 533.011719 190.007812 532.839844 192.824219 C 532.46875 198.484375 532.882812 203.789062 533.847656 208.910156 C 534.332031 211.472656 534.988281 213.976562 535.769531 216.464844 C 535.96875 217.089844 536.183594 217.703125 536.394531 218.3125 C 536.609375 218.925781 536.835938 219.550781 537.078125 220.164062 C 537.320312 220.773438 537.578125 221.402344 537.832031 222 C 537.902344 222.15625 537.960938 222.269531 538.015625 222.410156 L 538.1875 222.808594 L 538.542969 223.589844 C 540.464844 227.789062 542.667969 231.558594 544.917969 234.828125 C 547.164062 238.128906 549.453125 240.960938 551.628906 243.449219 C 553.808594 245.9375 555.871094 248.085938 557.789062 249.980469 L 559.167969 251.359375 L 559.851562 252.011719 L 560.507812 252.640625 L 562.953125 254.972656 L 567.589844 259.410156 L 569.925781 261.628906 L 571.089844 262.738281 L 572.242188 263.863281 L 576.867188 268.34375 C 578.417969 269.835938 579.953125 271.316406 581.476562 272.839844 C 606.011719 296.835938 630.039062 321.460938 653.652344 346.75 C 659.570312 353.066406 665.429688 359.441406 671.292969 365.84375 C 672.03125 366.636719 672.769531 367.433594 673.496094 368.246094 L 675.6875 370.664062 L 680.066406 375.472656 L 688.816406 385.160156 L 697.535156 394.902344 C 698.960938 396.496094 700.367188 398.046875 701.632812 399.511719 C 702.300781 400.265625 702.886719 400.964844 703.527344 401.6875 L 704.40625 402.742188 L 704.847656 403.269531 L 705.273438 403.78125 L 706.113281 404.789062 L 706.910156 405.785156 L 707.308594 406.269531 L 707.679688 406.753906 L 708.417969 407.71875 L 709.101562 408.660156 C 709.203125 408.816406 709.34375 408.988281 709.429688 409.128906 L 709.742188 409.582031 L 710.054688 410.039062 C 710.152344 410.195312 710.28125 410.351562 710.367188 410.496094 L 710.9375 411.375 C 711.648438 412.542969 712.316406 413.667969 712.828125 414.746094 L 713.042969 415.160156 C 713.113281 415.289062 713.15625 415.417969 713.210938 415.558594 C 713.328125 415.8125 713.441406 416.097656 713.566406 416.371094 C 713.652344 416.625 713.753906 416.894531 713.851562 417.164062 L 713.9375 417.363281 L 713.980469 417.464844 C 713.996094 417.507812 714.007812 417.519531 714.007812 417.550781 C 714.039062 417.636719 714.082031 417.707031 714.136719 417.792969 C 714.179688 417.863281 714.222656 417.960938 714.25 418.046875 C 714.28125 418.132812 714.335938 418.21875 714.363281 418.332031 C 714.421875 418.53125 714.507812 418.730469 714.550781 418.945312 C 714.621094 419.15625 714.648438 419.386719 714.707031 419.613281 C 714.734375 419.726562 714.734375 419.839844 714.761719 419.953125 C 714.792969 420.066406 714.804688 420.195312 714.804688 420.308594 C 714.820312 420.4375 714.820312 420.550781 714.847656 420.664062 C 714.863281 420.792969 714.863281 420.90625 714.878906 421.035156 C 714.90625 421.292969 714.890625 421.53125 714.890625 421.789062 C 714.878906 422.285156 714.878906 422.828125 714.804688 423.324219 L 714.792969 423.511719 L 714.761719 423.710938 L 714.71875 424.09375 L 714.664062 424.464844 L 714.636719 424.664062 L 714.59375 424.847656 C 714.492188 425.34375 714.378906 425.800781 714.238281 426.253906 C 714.109375 426.695312 713.953125 427.109375 713.796875 427.523438 L 713.683594 427.804688 L 713.625 427.949219 L 713.554688 428.078125 L 713.425781 428.347656 C 713.382812 428.417969 713.339844 428.515625 713.296875 428.589844 C 713.128906 428.902344 712.972656 429.230469 712.800781 429.484375 C 712.785156 429.527344 712.757812 429.554688 712.742188 429.597656 L 712.6875 429.683594 C 712.644531 429.753906 712.601562 429.824219 712.574219 429.882812 C 712.515625 429.941406 712.488281 429.996094 712.445312 430.066406 C 712.429688 430.109375 712.402344 430.140625 712.375 430.167969 L 712.316406 430.253906 C 712.230469 430.394531 712.132812 430.464844 712.019531 430.609375 C 711.960938 430.664062 711.917969 430.707031 711.859375 430.765625 C 711.832031 430.792969 711.804688 430.820312 711.777344 430.851562 L 711.675781 430.921875 C 711.605469 430.964844 711.546875 431.019531 711.464844 431.078125 C 711.390625 431.121094 711.292969 431.164062 711.207031 431.21875 C 711.179688 431.25 711.121094 431.277344 711.066406 431.277344 L 710.921875 431.332031 L 710.765625 431.40625 C 710.710938 431.433594 710.652344 431.433594 710.59375 431.460938 C 709.699219 431.761719 708.40625 431.859375 706.78125 431.746094 C 705.175781 431.617188 703.285156 431.261719 701.222656 430.792969 L 697.964844 430.011719 C 696.8125 429.742188 695.644531 429.457031 694.421875 429.171875 C 693.183594 428.902344 691.917969 428.632812 690.566406 428.390625 C 690.238281 428.316406 689.882812 428.277344 689.554688 428.234375 C 689.214844 428.175781 688.886719 428.132812 688.53125 428.089844 L 687.480469 427.976562 L 686.398438 427.890625 C 683.511719 427.679688 680.394531 427.777344 677.378906 428.515625 C 677.023438 428.589844 676.613281 428.714844 676.214844 428.832031 L 675.617188 429 C 675.417969 429.058594 675.230469 429.128906 675.046875 429.199219 C 674.675781 429.34375 674.292969 429.46875 673.910156 429.625 C 673.539062 429.796875 673.183594 429.953125 672.8125 430.125 C 671.390625 430.835938 670.082031 431.660156 668.914062 432.601562 C 667.734375 433.523438 666.710938 434.578125 665.785156 435.671875 C 665.332031 436.214844 664.90625 436.78125 664.507812 437.351562 C 664.308594 437.636719 664.121094 437.933594 663.9375 438.234375 C 663.753906 438.53125 663.597656 438.832031 663.410156 439.128906 C 662.742188 440.339844 662.1875 441.546875 661.746094 442.8125 C 661.304688 444.078125 660.976562 445.34375 660.777344 446.625 C 660.382812 449.1875 660.394531 451.761719 660.949219 454.164062 C 661.503906 456.570312 662.542969 458.800781 663.992188 460.539062 L 663.835938 459.699219 L 663.808594 459.5 L 663.792969 459.285156 L 663.753906 458.875 L 663.710938 458.460938 L 663.695312 458.046875 C 663.679688 457.777344 663.667969 457.507812 663.679688 457.238281 C 663.679688 456.15625 663.851562 455.105469 664.078125 454.109375 C 664.320312 453.097656 664.621094 452.144531 665.046875 451.234375 C 665.472656 450.324219 665.929688 449.472656 666.453125 448.660156 C 666.996094 447.863281 667.59375 447.125 668.246094 446.441406 C 668.886719 445.773438 669.585938 445.160156 670.28125 444.632812 C 670.992188 444.09375 671.734375 443.667969 672.472656 443.296875 C 673.226562 442.941406 673.964844 442.65625 674.707031 442.484375 C 675.445312 442.316406 676.15625 442.230469 676.824219 442.214844 C 676.996094 442.214844 677.152344 442.230469 677.324219 442.230469 C 677.492188 442.230469 677.648438 442.273438 677.804688 442.289062 C 677.878906 442.300781 677.964844 442.300781 678.035156 442.316406 L 678.261719 442.371094 C 678.417969 442.414062 678.546875 442.429688 678.730469 442.472656 L 679.242188 442.585938 C 679.414062 442.644531 679.597656 442.683594 679.753906 442.726562 C 679.925781 442.757812 680.097656 442.84375 680.265625 442.898438 C 680.4375 442.957031 680.609375 443.011719 680.78125 443.070312 L 681.292969 443.269531 L 681.804688 443.496094 C 681.972656 443.554688 682.160156 443.652344 682.332031 443.738281 C 682.5 443.824219 682.6875 443.894531 682.871094 443.996094 L 683.410156 444.277344 L 683.964844 444.578125 C 684.152344 444.675781 684.335938 444.777344 684.519531 444.90625 C 684.71875 445.019531 684.890625 445.105469 685.089844 445.246094 C 685.84375 445.6875 686.65625 446.214844 687.480469 446.726562 C 688.304688 447.265625 689.15625 447.835938 690.054688 448.417969 C 690.964844 449.015625 691.890625 449.628906 692.886719 450.253906 C 694.875 451.503906 697.082031 452.828125 699.699219 454.050781 C 701.007812 454.648438 702.402344 455.246094 703.9375 455.730469 C 705.460938 456.226562 707.097656 456.667969 708.859375 456.953125 C 709.074219 456.996094 709.300781 457.023438 709.515625 457.066406 L 710.195312 457.152344 L 710.878906 457.238281 C 711.105469 457.265625 711.335938 457.292969 711.5625 457.292969 C 712.019531 457.324219 712.5 457.351562 712.957031 457.378906 C 713.425781 457.394531 713.910156 457.394531 714.394531 457.394531 L 715.117188 457.378906 C 715.359375 457.367188 715.601562 457.351562 715.84375 457.335938 C 716.328125 457.308594 716.824219 457.265625 717.308594 457.210938 C 718.289062 457.082031 719.273438 456.953125 720.226562 456.738281 L 720.949219 456.582031 C 721.191406 456.539062 721.433594 456.46875 721.664062 456.414062 C 722.132812 456.285156 722.601562 456.15625 723.085938 456.015625 C 723.570312 455.871094 724.007812 455.714844 724.480469 455.558594 L 725.175781 455.316406 C 725.402344 455.230469 725.617188 455.132812 725.84375 455.046875 C 727.664062 454.335938 729.359375 453.441406 730.980469 452.445312 C 731.378906 452.1875 731.777344 451.933594 732.175781 451.675781 C 732.574219 451.417969 732.941406 451.136719 733.3125 450.878906 L 733.882812 450.480469 L 734.421875 450.054688 C 734.792969 449.769531 735.148438 449.472656 735.488281 449.1875 C 736.171875 448.589844 736.882812 447.992188 737.507812 447.367188 C 738.0625 446.726562 738.660156 446.070312 739.289062 445.417969 Z M 725.84375 234.503906 C 725.675781 234.472656 725.53125 234.503906 725.359375 234.472656 C 725.320312 234.460938 725.289062 234.460938 725.246094 234.445312 C 725.234375 234.429688 725.21875 234.445312 725.203125 234.429688 L 725.148438 234.402344 C 725.132812 234.386719 725.121094 234.375 725.105469 234.359375 C 725.089844 234.34375 725.078125 234.332031 725.078125 234.332031 C 725.0625 234.316406 725.046875 234.304688 725.046875 234.273438 C 725.046875 234.273438 725.035156 234.261719 725.035156 234.261719 C 725.019531 234.246094 725.035156 234.230469 725.019531 234.21875 C 725.019531 234.1875 725.003906 234.175781 725.003906 234.144531 C 725.003906 234.117188 725.003906 234.089844 725.003906 234.0625 C 725.019531 234.019531 725.019531 233.933594 725.035156 233.863281 C 725.078125 233.707031 725.148438 233.550781 725.289062 233.320312 C 725.320312 233.292969 725.320312 233.265625 725.347656 233.234375 L 725.417969 233.164062 C 725.460938 233.09375 725.503906 233.050781 725.558594 232.996094 C 725.601562 232.953125 725.660156 232.867188 725.730469 232.824219 C 725.757812 232.796875 725.789062 232.765625 725.816406 232.738281 C 725.84375 232.710938 725.875 232.679688 725.914062 232.636719 C 726.058594 232.496094 726.214844 232.398438 726.386719 232.253906 C 726.484375 232.183594 726.554688 232.140625 726.65625 232.070312 C 726.699219 232.027344 726.742188 232.011719 726.785156 231.96875 C 726.828125 232.636719 726.796875 233.179688 726.710938 233.632812 C 726.710938 233.691406 726.683594 233.75 726.667969 233.820312 C 726.65625 233.890625 726.65625 233.949219 726.628906 234.003906 C 726.585938 234.105469 726.570312 234.230469 726.527344 234.332031 C 726.472656 234.53125 726.371094 234.714844 726.300781 234.84375 C 726.128906 234.644531 726 234.542969 725.84375 234.503906 Z M 738.035156 183.164062 C 737.4375 183.164062 737.082031 183.035156 736.953125 182.90625 C 736.828125 182.78125 736.925781 182.652344 737.183594 182.539062 C 737.425781 182.4375 737.824219 182.382812 738.304688 182.351562 C 739.015625 182.324219 739.914062 182.394531 740.894531 182.550781 C 740.738281 182.625 740.566406 182.679688 740.398438 182.738281 C 739.488281 183.050781 738.632812 183.164062 738.035156 183.164062 Z M 606.824219 193.179688 C 606.839844 193.191406 606.839844 193.191406 606.851562 193.207031 L 606.867188 193.222656 C 606.882812 193.234375 606.867188 193.222656 606.882812 193.265625 C 606.921875 193.363281 606.964844 193.464844 607.007812 193.5625 C 607.050781 193.660156 607.09375 193.761719 607.121094 193.847656 C 607.136719 193.890625 607.152344 193.933594 607.164062 193.976562 C 607.039062 193.789062 606.953125 193.621094 606.882812 193.492188 C 606.683594 193.121094 606.695312 193.023438 606.824219 193.179688 Z M 586.554688 215.496094 C 586.582031 215.496094 586.582031 215.496094 586.554688 215.496094 C 586.566406 215.511719 586.582031 215.496094 586.597656 215.511719 C 586.597656 215.511719 586.582031 215.496094 586.554688 215.496094 Z M 586.554688 215.496094 " fill-opacity="1" fill-rule="nonzero"/></g></g></g><g clip-path="url(#925348ff27)"><g clip-path="url(#a0082424c7)"><g clip-path="url(#32853e9685)"><path fill="#fbd400" d="M 670.707031 166.960938 C 667.878906 164.925781 665.117188 162.820312 662.34375 160.730469 C 659.570312 158.640625 656.851562 156.519531 654.078125 154.457031 C 651.335938 152.367188 648.574219 150.347656 645.785156 148.355469 L 643.679688 146.875 L 641.574219 145.425781 C 641.21875 145.183594 640.878906 144.925781 640.523438 144.714844 L 639.457031 144.015625 L 638.390625 143.320312 C 638.035156 143.078125 637.691406 142.851562 637.324219 142.621094 C 635.898438 141.710938 634.464844 140.789062 633.011719 139.933594 C 632.273438 139.507812 631.574219 139.039062 630.835938 138.640625 L 628.644531 137.386719 C 627.917969 136.976562 627.164062 136.589844 626.441406 136.179688 L 625.332031 135.582031 C 624.960938 135.382812 624.578125 135.195312 624.222656 135.011719 L 621.988281 133.886719 C 621.234375 133.53125 620.496094 133.164062 619.726562 132.820312 C 613.695312 130.0625 607.40625 127.898438 600.976562 126.476562 C 597.761719 125.765625 594.535156 125.269531 591.289062 124.957031 C 588.046875 124.671875 584.773438 124.585938 581.546875 124.769531 C 575.074219 125.125 568.671875 126.492188 562.667969 129.050781 C 556.636719 131.585938 550.949219 135.167969 545.683594 139.40625 C 545.015625 139.933594 544.375 140.488281 543.722656 141.03125 C 543.550781 141.171875 543.394531 141.300781 543.222656 141.441406 L 542.742188 141.867188 L 541.789062 142.707031 C 541.148438 143.261719 540.519531 143.859375 539.894531 144.429688 L 538.957031 145.3125 L 538.03125 146.207031 C 535.570312 148.613281 533.210938 151.113281 530.847656 153.703125 C 532.457031 150.617188 534.304688 147.628906 536.3125 144.769531 C 538.332031 141.898438 540.550781 139.136719 542.953125 136.535156 C 547.777344 131.34375 553.480469 126.777344 559.925781 123.347656 L 561.148438 122.722656 L 561.757812 122.421875 L 562.058594 122.265625 L 562.371094 122.125 L 564.886719 121.027344 L 566.183594 120.53125 C 566.609375 120.359375 567.050781 120.203125 567.476562 120.0625 C 567.90625 119.917969 568.34375 119.761719 568.773438 119.621094 L 570.082031 119.222656 C 571.859375 118.722656 573.636719 118.253906 575.457031 117.941406 L 576.125 117.8125 L 576.808594 117.699219 L 578.160156 117.488281 C 579.070312 117.375 579.996094 117.246094 580.890625 117.175781 C 584.546875 116.820312 588.21875 116.820312 591.859375 117.046875 C 593.679688 117.1875 595.488281 117.375 597.292969 117.644531 C 599.085938 117.929688 600.878906 118.242188 602.65625 118.625 C 609.738281 120.191406 616.566406 122.695312 622.984375 125.949219 C 623.78125 126.347656 624.578125 126.777344 625.375 127.203125 L 627.691406 128.527344 C 628.078125 128.738281 628.472656 128.964844 628.84375 129.195312 L 629.980469 129.90625 C 630.734375 130.375 631.503906 130.832031 632.246094 131.3125 C 635.230469 133.25 638.105469 135.324219 640.894531 137.488281 C 641.589844 138.015625 642.273438 138.582031 642.96875 139.136719 L 643.992188 139.960938 C 644.335938 140.246094 644.675781 140.53125 645.003906 140.800781 L 647.023438 142.507812 C 647.691406 143.09375 648.332031 143.675781 648.988281 144.273438 L 649.953125 145.15625 L 650.90625 146.050781 C 651.546875 146.632812 652.203125 147.230469 652.8125 147.84375 C 654.066406 149.066406 655.332031 150.277344 656.539062 151.511719 C 658.988281 153.988281 661.378906 156.519531 663.722656 159.09375 C 666.183594 161.671875 668.488281 164.289062 670.707031 166.960938 Z M 670.707031 166.960938 " fill-opacity="1" fill-rule="nonzero"/></g></g></g><g clip-path="url(#0829ce5ee3)"><g clip-path="url(#2a7693521c)"><g clip-path="url(#abe631eea3)"><path fill="#fbd400" d="M 734.523438 348.871094 C 735.019531 349.371094 735.503906 349.882812 735.988281 350.394531 L 736.710938 351.175781 L 737.425781 351.972656 L 738.816406 353.566406 C 739.273438 354.105469 739.726562 354.648438 740.167969 355.203125 L 740.851562 356.027344 L 741.507812 356.851562 L 742.816406 358.53125 C 743.242188 359.097656 743.667969 359.667969 744.066406 360.238281 L 744.691406 361.089844 L 745.304688 361.957031 C 748.578125 366.597656 751.519531 371.445312 754.136719 376.511719 C 754.480469 377.136719 754.792969 377.761719 755.105469 378.417969 L 756.058594 380.335938 L 756.96875 382.273438 C 757.269531 382.910156 757.550781 383.566406 757.835938 384.21875 L 758.691406 386.183594 L 759.5 388.160156 C 760.054688 389.484375 760.539062 390.820312 761.050781 392.15625 C 763.027344 397.519531 764.707031 403.097656 765.644531 408.929688 C 765.773438 409.65625 765.859375 410.394531 765.960938 411.121094 C 766.058594 411.84375 766.128906 412.597656 766.203125 413.324219 C 766.316406 414.804688 766.414062 416.296875 766.429688 417.792969 C 766.457031 420.777344 766.257812 423.824219 765.71875 426.78125 C 765.191406 429.753906 764.394531 432.65625 763.382812 435.460938 C 762.347656 438.261719 761.050781 440.949219 759.558594 443.496094 C 758.078125 446.058594 756.328125 448.460938 754.4375 450.695312 C 753.484375 451.816406 752.472656 452.886719 751.449219 453.910156 C 750.382812 454.917969 749.332031 455.914062 748.191406 456.824219 C 745.929688 458.660156 743.539062 460.308594 741.007812 461.648438 C 738.476562 463.011719 735.832031 464.121094 733.113281 464.875 C 735.460938 463.296875 737.679688 461.617188 739.730469 459.796875 C 740 459.585938 740.242188 459.34375 740.484375 459.101562 C 740.738281 458.875 740.996094 458.644531 741.238281 458.402344 L 741.976562 457.691406 C 742.21875 457.449219 742.472656 457.222656 742.703125 456.96875 C 743.171875 456.46875 743.640625 456 744.09375 455.488281 L 744.777344 454.75 L 745.433594 453.980469 C 748.945312 449.898438 751.777344 445.332031 753.9375 440.550781 C 755.007812 438.148438 755.917969 435.699219 756.628906 433.199219 C 757.339844 430.695312 757.851562 428.160156 758.179688 425.617188 C 758.234375 425.300781 758.25 424.976562 758.277344 424.664062 L 758.378906 423.710938 L 758.449219 422.757812 C 758.460938 422.429688 758.492188 422.117188 758.492188 421.804688 C 758.503906 421.164062 758.546875 420.523438 758.535156 419.882812 L 758.535156 418.914062 L 758.503906 417.949219 C 758.421875 415.359375 758.136719 412.769531 757.722656 410.167969 C 756.882812 404.976562 755.476562 399.78125 753.867188 394.589844 C 753.027344 391.988281 752.203125 389.398438 751.277344 386.824219 C 750.839844 385.53125 750.355469 384.25 749.886719 382.953125 L 749.160156 381.035156 L 748.789062 380.066406 C 748.660156 379.738281 748.546875 379.425781 748.40625 379.113281 L 747.652344 377.195312 L 746.882812 375.289062 C 746.628906 374.660156 746.371094 374.007812 746.085938 373.382812 C 745.816406 372.742188 745.5625 372.113281 745.289062 371.476562 C 744.734375 370.207031 744.195312 368.957031 743.625 367.675781 L 742.785156 365.785156 C 742.503906 365.160156 742.1875 364.53125 741.90625 363.90625 C 741.351562 362.640625 740.710938 361.402344 740.125 360.136719 L 739.214844 358.261719 L 738.761719 357.320312 L 738.304688 356.382812 C 737.992188 355.757812 737.679688 355.128906 737.367188 354.503906 L 736.414062 352.640625 L 735.945312 351.6875 L 735.460938 350.75 C 735.132812 350.136719 734.820312 349.511719 734.523438 348.871094 Z M 734.523438 348.871094 " fill-opacity="1" fill-rule="nonzero"/></g></g></g><g clip-path="url(#def356de2e)"><g clip-path="url(#bbd7be383d)"><g clip-path="url(#836041bf69)"><path fill="#fbd400" d="M 796.5 218.128906 C 796.925781 218.753906 797.28125 219.394531 797.667969 220.035156 C 798.007812 220.691406 798.363281 221.359375 798.691406 222.027344 C 799.003906 222.710938 799.304688 223.378906 799.601562 224.074219 C 799.871094 224.773438 800.140625 225.46875 800.382812 226.167969 C 801.367188 228.996094 802.046875 231.925781 802.476562 234.914062 C 803.3125 240.875 803.113281 246.992188 801.964844 252.921875 C 800.8125 258.855469 798.691406 264.617188 795.660156 269.808594 C 794.140625 272.410156 792.402344 274.859375 790.425781 277.121094 C 789.929688 277.675781 789.429688 278.230469 788.917969 278.769531 C 788.390625 279.296875 787.867188 279.824219 787.3125 280.320312 C 786.757812 280.820312 786.1875 281.300781 785.617188 281.785156 C 785.019531 282.242188 784.421875 282.695312 783.8125 283.109375 C 784.066406 282.398438 784.351562 281.714844 784.652344 281.046875 C 784.9375 280.363281 785.191406 279.679688 785.476562 279.027344 C 785.730469 278.34375 786.003906 277.675781 786.285156 277.019531 C 786.542969 276.339844 786.800781 275.683594 787.070312 275.042969 C 788.09375 272.398438 789.03125 269.78125 789.898438 267.175781 C 791.636719 261.941406 793.015625 256.691406 794.066406 251.371094 C 795.121094 246.054688 795.789062 240.660156 796.171875 235.15625 C 796.359375 232.410156 796.472656 229.621094 796.515625 226.792969 C 796.515625 226.082031 796.515625 225.371094 796.542969 224.660156 C 796.542969 223.945312 796.527344 223.222656 796.542969 222.496094 C 796.527344 221.769531 796.527344 221.058594 796.527344 220.320312 C 796.484375 219.621094 796.457031 218.882812 796.5 218.128906 Z M 796.5 218.128906 " fill-opacity="1" fill-rule="nonzero"/></g></g></g></g></g></svg>
